<?xml version="1.0" encoding="utf-8"?>
<!-- Generator: Adobe Illustrator 23.0.6, SVG Export Plug-In . SVG Version: 6.00 Build 0)  -->
<svg version="1.1" id="Layer_1" xmlns="http://www.w3.org/2000/svg" xmlns:xlink="http://www.w3.org/1999/xlink" x="0px" y="0px"
	 viewBox="0 0 4000 4000" style="enable-background:new 0 0 4000 4000;" xml:space="preserve">
<style type="text/css">
	.st0{fill:#00D1ED;}
</style>
<path class="st0" d="M3882.8,1882.8h-365.3c-57.2-746.5-653.8-1343.1-1400.3-1400.3V117.2C2117.2,52.4,2064.8,0,2000,0
	s-117.2,52.4-117.2,117.2v365.3c-746.5,57.3-1343.1,653.8-1400.3,1400.3H117.2C52.4,1882.8,0,1935.2,0,2000s52.4,117.2,117.2,117.2
	h365.3c57.3,746.5,653.8,1343.1,1400.3,1400.3v365.3c0,64.8,52.4,117.2,117.2,117.2c64.8,0,117.2-52.4,117.2-117.2v-365.3
	c746.5-57.2,1343.1-653.8,1400.3-1400.3h365.3c64.8,0,117.2-52.4,117.2-117.2S3947.6,1882.8,3882.8,1882.8z M3283.1,1882.8h-240.3
	c-54.8-486.9-438.7-870.9-925.7-925.7V716.9C2734.5,772.9,3227.1,1265.5,3283.1,1882.8z M2703.1,2117.2h105.3
	c-51.9,357.9-333.4,639.4-691.3,691.3v-105.3c0-64.8-52.4-117.2-117.2-117.2s-117.2,52.4-117.2,117.2v105.3
	c-357.9-51.9-639.4-333.4-691.3-691.3h105.3c64.8,0,117.2-52.4,117.2-117.2s-52.4-117.2-117.2-117.2h-105.3
	c51.9-357.9,333.4-639.4,691.3-691.3v105.3c0,64.8,52.4,117.2,117.2,117.2c64.8,0,117.2-52.4,117.2-117.2v-105.3
	c357.9,51.9,639.4,333.4,691.3,691.3h-105.3c-64.8,0-117.2,52.4-117.2,117.2C2585.9,2064.8,2638.4,2117.2,2703.1,2117.2z
	 M1882.8,716.9v240.3c-486.9,54.8-870.9,438.7-925.7,925.7H716.9C772.9,1265.5,1265.5,772.9,1882.8,716.9z M716.9,2117.2h240.3
	c54.8,486.9,438.7,870.9,925.7,925.7v240.3C1265.5,3227.1,772.9,2734.5,716.9,2117.2z M2117.2,3283.1v-240.3
	c486.9-54.8,870.9-438.7,925.7-925.7h240.3C3227.1,2734.5,2734.5,3227.1,2117.2,3283.1z"/>
</svg>
