<?xml version="1.0" encoding="utf-8"?>
<!-- Generator: Adobe Illustrator 23.0.6, SVG Export Plug-In . SVG Version: 6.00 Build 0)  -->
<svg version="1.1" id="Layer_1" xmlns="http://www.w3.org/2000/svg" xmlns:xlink="http://www.w3.org/1999/xlink" x="0px" y="0px"
	 viewBox="0 0 512 512" style="enable-background:new 0 0 512 512;" xml:space="preserve">
<style type="text/css">
	.st0{fill:#E91E63;}
</style>
<g id="_29-auction">
	<g id="Glyph">
		<path class="st0" d="M0,469.3h298.7V512H0V469.3z"/>
		<path class="st0" d="M256,426.3c0-11.8-9.6-21.3-21.3-21.3H64c-11.8,0-21.3,9.6-21.3,21.3V448H256V426.3z"/>
		<path class="st0" d="M290.3,251.9c-9.9,10.6-18.3,22.6-24.7,35.6l175.6,175.6c8.3,8.3,21.8,8.3,30.2,0l30.2-30.2
			c8.3-8.3,8.3-21.8,0-30.2l0,0L325.9,227.2C312.8,233.6,300.8,241.9,290.3,251.9L290.3,251.9z"/>
		<path class="st0" d="M184.7,146.3c-16.1,15-34.8,26.9-55.1,35.4L239.9,292c8.5-20.3,20.5-39,35.4-55.1
			c16.1-15,34.8-26.9,55.1-35.4L220.1,91.2C211.6,111.5,199.6,130.1,184.7,146.3z"/>
		<path class="st0" d="M229.9,40.7l30.2-30.2c8.3-8.3,21.8-8.3,30.2,0L411,131.2c8.3,8.3,8.3,21.8,0,30.2l-30.2,30.2
			c-8.3,8.3-21.8,8.3-30.2,0L229.9,70.9C221.6,62.6,221.6,49.1,229.9,40.7z"/>
		<path class="st0" d="M48.9,221.7L79,191.6c8.3-8.3,21.8-8.3,30.2,0l120.7,120.7c8.3,8.3,8.3,21.8,0,30.2l-30.2,30.2
			c-8.3,8.3-21.8,8.3-30.2,0L48.9,251.9C40.6,243.6,40.6,230.1,48.9,221.7z"/>
	</g>
</g>
</svg>
