<?xml version="1.0" encoding="utf-8"?>
<!-- Generator: Adobe Illustrator 23.0.6, SVG Export Plug-In . SVG Version: 6.00 Build 0)  -->
<svg version="1.1" xmlns="http://www.w3.org/2000/svg" xmlns:xlink="http://www.w3.org/1999/xlink" x="0px" y="0px"
	 viewBox="0 0 512 512" style="enable-background:new 0 0 512 512;" xml:space="preserve">
<style type="text/css">
	.st0{fill:#FDBA49;}
	.st1{fill:#C6720E;}
</style>
<g id="Layer_2">
	<circle class="st0" cx="256" cy="255.8" r="256"/>
</g>
<g id="Capa_1">
	<g>
		<path class="st1" d="M437,75C388.7,26.6,324.4,0,256,0c-37.6,0-73.8,8-107.6,23.6c-3.8,1.7-5.4,6.2-3.6,10c1.7,3.8,6.2,5.4,10,3.6
			C186.5,22.5,220.6,15,256,15c132.9,0,241,108.1,241,241c0,59.3-21.8,116.4-61.3,160.6c-2.8,3.1-2.5,7.8,0.6,10.6
			c3.1,2.8,7.8,2.5,10.6-0.6c42-47,65.1-107.5,65.1-170.6C512,187.6,485.4,123.3,437,75L437,75z"/>
		<path class="st1" d="M411.4,440.2C368,476.8,312.8,497,256,497C123.1,497,15,388.9,15,256c0-82,41.1-157.6,110-202.3
			c3.5-2.3,4.5-6.9,2.2-10.4s-6.9-4.5-10.4-2.2C43.7,88.5,0,168.9,0,256c0,68.4,26.6,132.7,75,181c48.4,48.4,112.6,75,181,75
			c60.4,0,119-21.4,165.1-60.3c3.2-2.7,3.6-7.4,0.9-10.6C419.3,438,414.5,437.6,411.4,440.2L411.4,440.2z"/>
		<path class="st1" d="M35,256c0,59,23,114.5,64.7,156.3C141.5,454,197,477,256,477s114.5-23,156.3-64.7C454,370.5,477,315,477,256
			c0-121.9-99.1-221-221-221S35,134.1,35,256z M256,50c113.6,0,206,92.4,206,206c0,55-21.4,106.8-60.3,145.7S311,462,256,462
			s-106.8-21.4-145.7-60.3S50,311,50,256C50,142.4,142.4,50,256,50z"/>
		<path class="st1" d="M173,341.7c-15.2,0-27.5,12.3-27.5,27.5s12.3,27.5,27.5,27.5h21.5V417c0,12.4,10.1,22.5,22.5,22.5
			s22.5-10.1,22.5-22.5v-20.3h13V416c0,12.4,10.1,22.5,22.5,22.5s22.5-10.1,22.5-22.5v-20.4c44.7-4.3,79.8-42.2,79.8-87.8
			c0-27.1-12.3-52.3-33.4-69c8.1-12.2,12.6-26.2,13.1-41c0.1-4.1-3.1-7.6-7.2-7.7c-4.2-0.2-7.6,3.1-7.7,7.2
			c-0.5,14.1-5.4,27.4-14.4,38.4c-2.8,3.3-2,8.7,1.7,11c20.7,13.6,33,36.5,33,61.1c0,39.9-32.5,72.8-72.4,73.2
			c-4.1,0-7.4,3.4-7.4,7.5V416c0,4.1-3.4,7.5-7.5,7.5s-7.5-3.4-7.5-7.5v-26.7c0-4.1-3.4-7.5-7.5-7.5h-28c-4-0.1-7.6,3.5-7.5,7.5V417
			c0,4.1-3.4,7.5-7.5,7.5s-7.5-3.4-7.5-7.5v-27.8c0-4.1-3.4-7.5-7.5-7.5h-29c-6.9,0-12.5-5.6-12.5-12.5s5.6-12.5,12.5-12.5h19.2
			c4.1,0,7.5-3.4,7.5-7.5v-186c0-4.1-3.4-7.5-7.5-7.5H173c-6.9,0-12.5-5.6-12.5-12.5s5.6-12.5,12.5-12.5h29c4.1,0,7.5-3.4,7.5-7.5
			V97c0-4.1,3.4-7.5,7.5-7.5s7.5,3.4,7.5,7.5v26.2c0,4.1,3.4,7.5,7.5,7.5h28c4.1,0,7.5-3.4,7.5-7.5V96c0-4.1,3.4-7.5,7.5-7.5
			s7.5,3.4,7.5,7.5v28.3c0,3.6,2.6,6.8,6.2,7.4c20.1,3.5,37.5,16.5,46.7,34.9c1.8,3.7,6.3,5.2,10.1,3.4c3.7-1.8,5.2-6.3,3.4-10.1
			c-10.3-20.7-29.2-35.9-51.3-41.6V96c0-12.4-10.1-22.5-22.5-22.5S252.5,83.6,252.5,96v19.7h-13V97c0-12.4-10.1-22.5-22.5-22.5
			S194.5,84.6,194.5,97v18.7H173c-15.2,0-27.5,12.3-27.5,27.5s12.3,27.5,27.5,27.5h11.7v171H173z"/>
		<path class="st1" d="M232.2,234.6L232.2,234.6c0,0,40.7-0.1,45.5-0.1c21.7,0,39.4-17.7,39.4-39.4s-17.7-39.4-39.4-39.4h-45.5
			c-4.1,0-7.5,3.4-7.5,7.5v63.9C224.6,231.1,228.1,234.7,232.2,234.6L232.2,234.6z M239.7,170.7h38c13.5,0,24.4,10.9,24.4,24.4
			s-10.9,24.4-24.4,24.4c-3.5,0-26,0-38,0.1L239.7,170.7z"/>
		<path class="st1" d="M289.1,341c-4.5-0.5-8.7,2.9-8.6,7.5c0,4.6,4.1,8,8.6,7.5c26.6,0,48.2-21.6,48.2-48.2s-21.6-48.2-48.2-48.2
			c-0.5,0-50.3,0.1-57,0.1c-4.1,0-7.5,3.4-7.5,7.5v81.5c-0.1,4,3.5,7.6,7.5,7.5l20.8-0.1c4.1,0,7.5-3.4,7.5-7.5s-3.4-7.5-7.5-7.5
			l0,0l-13.3,0.1v-66.5c15.8,0,49.1-0.1,49.5-0.1c18.3,0,33.2,14.9,33.2,33.2C322.3,326.1,307.4,341,289.1,341z"/>
	</g>
</g>
</svg>
