<svg id="Layer_1" enable-background="new 0 0 512 512" height="512" viewBox="0 0 512 512" width="512" xmlns="http://www.w3.org/2000/svg"><g><path d="m497.05 256c0 133.1-107.89 241-241 241h-.05c-133.08-.03-240.95-107.92-240.95-241s107.87-240.97 240.95-241h.05c133.11 0 241 107.9 241 241z" fill="#ffcd40"/><path d="m497.05 256c0 133.1-107.89 241-241 241h-.05v-482h.05c133.11 0 241 107.9 241 241z" fill="#ffa943"/><g><path d="m437.02 74.98c-48.35-48.35-112.64-74.98-181.02-74.98s-132.67 26.63-181.02 74.98-74.98 112.64-74.98 181.02 26.63 132.67 74.98 181.02 112.64 74.98 181.02 74.98 132.67-26.63 181.02-74.98 74.98-112.64 74.98-181.02-26.63-132.67-74.98-181.02zm-21.21 340.83c-42.69 42.68-99.44 66.19-159.81 66.19s-117.12-23.51-159.81-66.19c-42.68-42.69-66.19-99.44-66.19-159.81s23.51-117.12 66.19-159.81c42.69-42.68 99.44-66.19 159.81-66.19s117.12 23.51 159.81 66.19c42.68 42.69 66.19 99.44 66.19 159.81s-23.51 117.12-66.19 159.81z" fill="#fff066"/></g><path d="m420.62 268.89c-4.69-12.73-14.29-23.8-27.03-31.18-14.55-8.44-43.06-17.19-88.24.32 35.95-29.93 42.42-58.35 42.42-74.91 0-14.76-4.75-28.64-13.38-39.07-9.22-11.16-22.03-17.3-36.06-17.3-20.52 0-34.43 10.22-41.95 17.84-.12-.13-.25-.25-.38-.38-7.59-7.57-21.38-17.46-41.56-17.46-14.04 0-26.84 6.14-36.06 17.3-8.63 10.44-13.38 24.31-13.38 39.07 0 16.65 6.54 45.29 43 75.4-45.9-18.16-74.8-9.32-89.48-.81-12.74 7.38-22.34 18.45-27.03 31.18-5 13.57-3.9 27.76 3.11 39.95 10.26 17.85 26.05 24.83 36.38 27.55-2.82 10.33-4.7 27.54 5.56 45.39 6.27 10.91 16.08 18.41 28.37 21.7 4.42 1.19 9.03 1.77 13.71 1.77 10.55 0 21.45-2.97 31.31-8.68 16.59-9.62 42.61-34.82 46.07-98.82.02-.35.04-.71.06-1.06 3.22 64.78 29.44 90.21 46.12 99.88 9.86 5.71 20.76 8.68 31.31 8.68 4.68 0 9.29-.58 13.71-1.77 12.29-3.29 22.1-10.79 28.37-21.7 10.26-17.85 8.38-35.06 5.56-45.39 10.33-2.72 26.12-9.7 36.38-27.55 7.01-12.19 8.11-26.38 3.11-39.95z" fill="#fff066"/><g fill="#ffcd40"><path d="m256.06 296.69c-.02.35-.04.71-.06 1.06v-173.54c.13.13.26.25.38.38 7.52-7.62 21.43-17.84 41.95-17.84 14.03 0 26.84 6.14 36.06 17.3 8.63 10.43 13.38 24.31 13.38 39.07 0 16.56-6.47 44.98-42.42 74.91 45.18-17.51 73.69-8.76 88.24-.32 12.74 7.38 22.34 18.45 27.03 31.18 5 13.57 3.9 27.76-3.11 39.95-10.26 17.85-26.05 24.83-36.38 27.55 2.82 10.33 4.7 27.54-5.56 45.39-6.27 10.91-16.08 18.41-28.37 21.7-4.42 1.19-9.03 1.77-13.71 1.77-10.55 0-21.45-2.97-31.31-8.68-16.68-9.67-42.9-35.1-46.12-99.88z"/><path d="m512 256c0 68.38-26.63 132.67-74.98 181.02s-112.64 74.98-181.02 74.98v-30c60.37 0 117.12-23.51 159.81-66.19 42.68-42.69 66.19-99.44 66.19-159.81s-23.51-117.12-66.19-159.81c-42.69-42.68-99.44-66.19-159.81-66.19v-30c68.38 0 132.67 26.63 181.02 74.98s74.98 112.64 74.98 181.02z"/></g></g></svg>