<?xml version="1.0" encoding="utf-8"?>
<!-- Generator: Adobe Illustrator 23.0.6, SVG Export Plug-In . SVG Version: 6.00 Build 0)  -->
<svg version="1.1" id="Capa_1" xmlns="http://www.w3.org/2000/svg" xmlns:xlink="http://www.w3.org/1999/xlink" x="0px" y="0px"
	 viewBox="0 0 512 512" style="enable-background:new 0 0 512 512;" xml:space="preserve">
<style type="text/css">
	.st0{fill:#956ADB;}
</style>
<g>
	<g>
		<path class="st0" d="M478,262.6c-2.1-4.2-2.1-9,0-13.3l19.1-39.1c10.6-21.8,2.2-47.7-19.2-59l-38.4-20.4c-4.1-2.2-7-6.1-7.8-10.7
			l-7.5-42.8C420,53.5,397.9,37.5,374,40.9L330.9,47c-4.6,0.7-9.2-0.8-12.6-4.1L287,12.6c-17.4-16.8-44.7-16.8-62.1,0l-31.3,30.2
			c-3.4,3.3-8,4.8-12.6,4.1l-43.1-6.1c-24-3.4-46,12.6-50.2,36.5l-7.5,42.8c-0.8,4.6-3.7,8.5-7.8,10.7l-38.4,20.4
			c-21.4,11.3-29.8,37.3-19.2,59L34,249.4c2.1,4.2,2.1,9,0,13.3l-19.1,39.1c-10.6,21.8-2.2,47.7,19.2,59l38.4,20.4
			c4.1,2.2,7,6.1,7.8,10.7l7.5,42.8c3.8,21.7,22.4,36.9,43.8,36.9c2.1,0,4.2-0.1,6.4-0.5l43.1-6.1c4.6-0.7,9.2,0.8,12.6,4.1
			l31.3,30.2c8.7,8.4,19.9,12.6,31,12.6c11.2,0,22.3-4.2,31-12.6l31.3-30.2c3.4-3.3,8-4.8,12.6-4.1l43.1,6.1
			c24,3.4,46-12.6,50.2-36.5l7.5-42.8c0.8-4.6,3.7-8.5,7.8-10.7l38.4-20.4c21.4-11.3,29.8-37.3,19.2-59L478,262.6z M464,334.6
			L425.6,355c-12.2,6.5-20.6,18.1-23,31.7l-7.5,42.8c-1.4,8.1-8.9,13.5-17,12.3l-43.1-6.1c-13.7-1.9-27.3,2.5-37.3,12.1l-31.3,30.2
			c-5.9,5.7-15.1,5.7-21,0l-31.3-30.2c-8.4-8.1-19.4-12.6-30.9-12.6c-2.1,0-4.2,0.1-6.4,0.4l-43.1,6.1c-8.1,1.1-15.6-4.3-17-12.3
			l-7.5-42.8c-2.4-13.7-10.8-25.2-23-31.7L48,334.6c-7.2-3.8-10.1-12.6-6.5-20l19.1-39.1c6.1-12.5,6.1-26.7,0-39.2l-19.1-39.1
			c-3.6-7.4-0.7-16.1,6.5-20L86.4,157c12.2-6.5,20.6-18.1,23-31.7l7.5-42.8c1.4-8.1,8.9-13.5,17-12.3l43.1,6.1
			c13.7,1.9,27.3-2.5,37.3-12.1l31.3-30.2c5.9-5.7,15.1-5.7,21,0l31.3,30.2c10,9.6,23.6,14.1,37.3,12.1l43.1-6.1
			c8.1-1.1,15.6,4.3,17,12.3l7.5,42.8c2.4,13.7,10.8,25.2,23,31.7l38.4,20.4c7.2,3.8,10.1,12.6,6.5,20l-19.1,39.1
			c-6.1,12.5-6.1,26.7,0,39.2l19.1,39.1C474.1,322,471.3,330.8,464,334.6z"/>
	</g>
</g>
<g>
	<g>
		<path class="st0" d="M363.9,148.1c-5.8-5.8-15.1-5.8-20.9,0L148.1,343c-5.8,5.8-5.8,15.1,0,20.9c2.9,2.9,6.7,4.3,10.4,4.3
			s7.6-1.4,10.4-4.3L363.9,169C369.7,163.2,369.7,153.9,363.9,148.1z"/>
	</g>
</g>
<g>
	<g>
		<path class="st0" d="M196.9,123.1c-29.9,0-54.1,24.3-54.1,54.1s24.3,54.1,54.1,54.1s54.1-24.3,54.1-54.1S226.8,123.1,196.9,123.1z
			 M196.9,201.9c-13.6,0-24.6-11-24.6-24.6c0-13.6,11-24.6,24.6-24.6s24.6,11,24.6,24.6C221.5,190.8,210.5,201.9,196.9,201.9z"/>
	</g>
</g>
<g>
	<g>
		<path class="st0" d="M315.1,280.6c-29.9,0-54.1,24.3-54.1,54.1s24.3,54.1,54.1,54.1c29.9,0,54.1-24.3,54.1-54.1
			S344.9,280.6,315.1,280.6z M315.1,359.4c-13.6,0-24.6-11-24.6-24.6s11-24.6,24.6-24.6c13.6,0,24.6,11,24.6,24.6
			S328.6,359.4,315.1,359.4z"/>
	</g>
</g>
</svg>
