<?xml version="1.0" encoding="utf-8"?>
<!-- Generator: Adobe Illustrator 23.0.6, SVG Export Plug-In . SVG Version: 6.00 Build 0)  -->
<svg version="1.1" id="Layer_1" xmlns="http://www.w3.org/2000/svg" xmlns:xlink="http://www.w3.org/1999/xlink" x="0px" y="0px"
	 viewBox="0 0 512 512" style="enable-background:new 0 0 512 512;" xml:space="preserve">
<style type="text/css">
	.st0{fill:#FF6258;}
</style>
<path class="st0" d="M512,254v89c-1.1,26.5-39,26.5-40,0v-39.5l-63.6,63.7c-3.7,3.8-8.8,5.9-14.1,5.9h-101l-133.1,133
	c-7.8,7.8-20.5,7.8-28.3,0c-7.8-7.8-7.8-20.5,0-28.3l139-139c3.7-3.8,8.8-5.9,14.1-5.9h100.9l59-59H402c-26.5-1.1-26.5-39,0-40h90
	C503,234,512,242.9,512,254z M492,403c-11,0-20,9-20,20v69c1.1,26.5,39,26.5,40,0v-69C512,411.9,503,403,492,403z M412,403
	c-11,0-20,9-20,20v69c1.1,26.5,39,26.5,40,0v-69C432,411.9,423,403,412,403z M332,403c-11,0-20,9-20,20v69c1.1,26.5,39,26.5,40,0
	v-69C352,411.9,343,403,332,403z M252,464c-11,0-20,9-20,20v8c1.1,26.5,39,26.5,40,0v-8C272,472.9,263.1,464,252,464z M211,339
	c11,0,20-9,20-20v-12.3c62.7-23.2,47.6-115.4-20-116.7c-26.6-1.1-26.5-38.8,0-39.9c8,0,14.4,4.3,17.6,11.7
	c4.3,10.2,16.1,14.9,26.2,10.6c10.2-4.3,14.9-16.1,10.6-26.2c-6.7-15.8-19.1-27.3-34.4-32.7V100c-1.1-26.5-39-26.5-40,0v13.6
	c-62.6,23.2-47.7,115.1,20,116.4c26.4,1.1,26.6,39,0,40.1c-7.8,0-15.5-5.1-18.8-12.3c-4.5-10.1-16.4-14.6-26.4-10
	c-10.1,4.5-14.6,16.4-10,26.4c6.8,15.2,19.9,26.9,35.2,32.4V319C191,330,200,339,211,339L211,339z M142,407.5
	c8,0,15.6-4.9,18.7-12.8c4-10.3-1.2-21.9-11.5-25.8C-25,298.5,21.8,43.1,210,40c82.8,0,153.2,59.1,167.4,140.4
	c1.9,10.9,12.3,18.2,23.1,16.2c10.9-1.9,18.2-12.3,16.2-23.1c-8.4-48.1-33.7-92-71.1-123.8C211-65.4-0.6,32.4,0,210
	c-1,85.4,55,166.5,134.8,196.1C137.2,407,139.6,407.5,142,407.5L142,407.5z"/>
</svg>
