<?xml version="1.0" encoding="utf-8"?>
<!-- Generator: Adobe Illustrator 23.0.6, SVG Export Plug-In . SVG Version: 6.00 Build 0)  -->
<svg version="1.1" id="Capa_1" xmlns="http://www.w3.org/2000/svg" xmlns:xlink="http://www.w3.org/1999/xlink" x="0px" y="0px"
	 viewBox="0 0 512 512" style="enable-background:new 0 0 512 512;" xml:space="preserve">
<style type="text/css">
	.st0{fill:#E91E63;}
</style>
<g>
	<path class="st0" d="M416.3,435.6C372.2,475.2,315.3,497,256,497c-64.1,0-124.4-25-169.7-70.3C41,381.4,16,321.1,16,257
		S41,132.6,86.3,87.3C131.6,42,191.9,17,256,17c30.9,0,61,5.8,89.4,17.2c3.8,1.5,8.2-0.3,9.8-4.2c1.5-3.8-0.3-8.2-4.2-9.8
		C320.8,8.2,288.8,2,256,2C187.9,2,123.9,28.5,75.7,76.7C27.5,124.9,1,188.9,1,257s26.5,132.1,74.7,180.3
		C123.9,485.5,187.9,512,256,512c63,0,123.5-23.2,170.4-65.3c3.1-2.8,3.3-7.5,0.6-10.6C424.2,433.1,419.4,432.8,416.3,435.6
		L416.3,435.6z"/>
	<path class="st0" d="M491.3,158.6c-1.6-3.8-6-5.6-9.8-4c-3.8,1.6-5.6,6-4,9.8c12.3,29.4,18.5,60.5,18.5,92.6
		c0,57.2-20.5,112.6-57.7,156c-2.7,3.1-2.3,7.9,0.8,10.6c1.4,1.2,3.1,1.8,4.9,1.8c2.1,0,4.2-0.9,5.7-2.6
		c39.5-46.1,61.3-105,61.3-165.8C511,222.9,504.4,189.8,491.3,158.6L491.3,158.6z"/>
	<path class="st0" d="M91.1,164.5c-3.7-1.9-8.2-0.4-10.1,3.3c-14.2,27.8-21.4,57.8-21.4,89.2c0,108.3,88.1,196.3,196.4,196.3
		S452.4,365.3,452.4,257c0-18.4-2.5-36.6-7.6-54.1c-1.1-4-5.3-6.3-9.3-5.1c-4,1.1-6.3,5.3-5.1,9.3c4.6,16.2,7,33,7,50
		c0,100-81.4,181.4-181.4,181.4S74.6,357,74.6,257c0-29,6.6-56.7,19.7-82.4C96.3,170.9,94.8,166.4,91.1,164.5L91.1,164.5z"/>
	<path class="st0" d="M313.1,76.8c1.1-4-1.3-8.1-5.3-9.2C291,63,273.5,60.7,256,60.7c-31.5,0-61.6,7.2-89.4,21.5
		c-26.6,13.6-50.1,33.5-68,57.4c-2.5,3.3-1.8,8,1.5,10.5c1.3,1,2.9,1.5,4.5,1.5c2.3,0,4.5-1,6-3c16.5-22.1,38.3-40.5,62.8-53.1
		c25.7-13.2,53.5-19.9,82.6-19.9c16.2,0,32.3,2.2,47.9,6.4C307.9,83.1,312,80.8,313.1,76.8z"/>
	<path class="st0" d="M272.1,133.1c0.3-4.1-2.8-7.7-7-8c-3.1-0.2-6.1-0.3-9.1-0.3c-72.9,0-132.2,59.3-132.2,132.2
		S183.1,389.2,256,389.2S388.2,329.9,388.2,257c0-3.5-0.1-7-0.4-10.6c-0.3-4.1-3.9-7.2-8.1-6.9c-4.1,0.3-7.2,3.9-6.9,8.1
		c0.2,3.2,0.4,6.3,0.4,9.4c0,64.6-52.6,117.2-117.2,117.2S138.8,321.6,138.8,257S191.4,139.8,256,139.8c2.6,0,5.3,0.1,8.1,0.3
		C268.2,140.4,271.8,137.3,272.1,133.1L272.1,133.1z"/>
	<path class="st0" d="M255.9,205.3c0.1,0,0.3,0,0.4,0c4.1,0,7.5-3.3,7.6-7.4c0-4.1-3.3-7.5-7.4-7.6c-0.2,0-0.3,0-0.5,0
		c-36.8,0-66.7,29.9-66.7,66.7s29.9,66.7,66.7,66.7c36.5,0,66.4-29.7,66.7-66.2c0-4.1-3.3-7.5-7.4-7.6h-0.1c-4.1,0-7.5,3.3-7.5,7.4
		c-0.2,28.3-23.4,51.3-51.7,51.3c-28.5,0-51.7-23.2-51.7-51.7S227.5,205.3,255.9,205.3L255.9,205.3z"/>
	<path class="st0" d="M287.7,141.9l13.8,41.7l-36.7,38c-8.6,8.9-13.3,21.1-13.1,33.4c0.1,4.1,3.4,7.3,7.5,7.3h0.1
		c12.3,0,24.3-5,33-13.7l9.4-9.4c2.9-2.9,2.9-7.7,0-10.6c-2.9-2.9-7.7-2.9-10.6,0l-9.4,9.4c-3.9,3.9-8.7,6.7-14,8.2
		c1.3-5.3,4.1-10.2,7.9-14.2L448,53.4c0.5-0.6,1.2-0.7,1.6-0.7c0.4,0,1.1,0.1,1.6,0.6l5.4,5.2c0.6,0.5,0.7,1.2,0.7,1.6
		s-0.1,1.1-0.7,1.6L314,205.4c-2.9,2.9-2.9,7.7,0,10.6c2.9,2.9,7.7,2.9,10.6,0l4.9-4.9c0,0,45.3,13.7,47,13.7
		c4.3,0,8.5-1.6,11.7-4.6l117.1-108.8c4.3-4,6.3-9.9,5.2-15.7c-1.1-5.8-4.9-10.6-10.4-12.8L469,70.2c2.1-2.9,3.2-6.4,3.2-10.1
		c0-4.6-1.9-9-5.2-12.2l-5.4-5.2c-3.3-3.2-7.5-4.9-12.1-4.9c-0.1,0-0.2,0-0.2,0c-3.7,0.1-7.1,1.3-10,3.4L426,10.4
		c-2.3-5.4-7.2-9.2-13-10.1c-5.8-0.9-11.6,1.1-15.5,5.5L291.2,125.1C287.1,129.6,285.8,136.1,287.7,141.9L287.7,141.9z M443.2,148.6
		l-36.7-15l23.3-23.5l38.1,15.5L443.2,148.6z M406.3,182.8l-34.6-14.2l23.3-23.5l36.1,14.7L406.3,182.8z M378,209.1
		c-0.6,0.5-1.4,0.7-2.1,0.5L341.5,199l18.8-18.9l33.9,14L378,209.1z M495.8,98.4c0.1,0.4,0.1,1.3-0.7,2l-15.1,14l-38.8-15.8
		l16.6-16.7l36.6,14.9C495.4,97.2,495.7,97.9,495.8,98.4L495.8,98.4z M350.6,81l15.5,35.7l-23,23.8l-15-34.3L350.6,81z M384,43.5
		l16.3,37.8l-23,23.8l-15.7-36.4L384,43.5z M408.7,15.7c0.7-0.8,1.5-0.8,2-0.7c0.4,0.1,1.2,0.3,1.6,1.3L428,52.6l-16.4,17L395,31.1
		L408.7,15.7z M302.4,135.1l14.7-16.5l14.7,33.6l-18.5,19.1L302,137.2C301.7,136.4,301.9,135.6,302.4,135.1z"/>
</g>
</svg>
