<?xml version="1.0" encoding="utf-8"?>
<!-- Generator: Adobe Illustrator 16.0.0, SVG Export Plug-In . SVG Version: 6.00 Build 0)  -->
<!DOCTYPE svg PUBLIC "-//W3C//DTD SVG 1.1//EN" "http://www.w3.org/Graphics/SVG/1.1/DTD/svg11.dtd">
<svg version="1.1" id="Capa_1" xmlns="http://www.w3.org/2000/svg" xmlns:xlink="http://www.w3.org/1999/xlink" x="0px" y="0px"
	 width="4000px" height="4000px" viewBox="0 0 4000 4000" enable-background="new 0 0 4000 4000" xml:space="preserve">
<g>
	<path fill="#FDBA49" d="M2393.336,1025.5c-15.711-16.297-37.367-25.5-60-25.5h-666.664c-22.633,0-44.289,9.203-60,25.5
		C1484.836,1151.664,416.664,2272.336,416.664,2750c0,689.336,710.336,1250,1583.336,1250s1583.336-560.664,1583.336-1250
		C3583.336,2272.336,2515.164,1151.664,2393.336,1025.5z"/>
	<path fill="#FDBA49" d="M3062.5,111.5c-138.836-157-500,49-707.336,188.5C2260.164,165,2119.5,0,2000,0s-260.164,165-355.164,300
		C1438,160.336,1076.164-45.664,937.5,111.5c-38.438,44.32-56.57,102.703-50,161c26.836,308.664,655.164,818.836,726.664,875.836
		c14.883,11.945,33.414,18.414,52.5,18.336h666.664c18.891,0.016,37.227-6.391,52-18.164c71.5-57.164,700-566.664,726.664-875.836
		C3118.82,214.383,3100.859,155.906,3062.5,111.5z"/>
</g>
<path fill="#BC8639" d="M2666.664,1166.664H1333.336c-46.023,0-83.336-37.313-83.336-83.336s37.313-83.328,83.336-83.328h1333.336
	c46.023,0,83.336,37.313,83.336,83.336S2712.688,1166.664,2666.664,1166.664z"/>
<g>
	<path fill="#FAFAFA" d="M2000,3333.336c-198.164,19.57-378.664-114.867-416.664-310.336c-3.867-46.023,30.313-86.469,76.336-90.336
		s86.469,30.313,90.336,76.336c7.336,87,119.5,157.664,250,157.664c135.664,0,250-76.336,250-166.664c0-81.336-79-133.336-248.5-165
		l-18.164-3.336c-270.5-50-400-160.5-400-331.664c26.07-205.406,210.547-352.984,416.664-333.336
		c198.164-19.57,378.664,114.867,416.664,310.336c3.867,46.023-30.313,86.469-76.336,90.336S2253.867,2537.023,2250,2491l0,0
		c-7-87-119.164-157.664-250-157.664c-135.664,0-250,76.336-250,166.664c0,81.336,79.164,133.336,248.836,165l18.336,3.5
		c270,50,400,160.336,400,331.664C2391.008,3205.719,2206.25,3353.281,2000,3333.336z"/>
	<path fill="#FAFAFA" d="M2000,3500c-46.023,0-83.336-37.313-83.336-83.336V2083.336c0-46.023,37.313-83.336,83.336-83.336
		s83.336,37.313,83.336,83.336v1333.336C2083.336,3462.688,2046.023,3500,2000,3500z"/>
</g>
</svg>
