<?xml version="1.0" encoding="utf-8"?>
<!-- Generator: Adobe Illustrator 23.0.6, SVG Export Plug-In . SVG Version: 6.00 Build 0)  -->
<svg version="1.1" id="Capa_1" xmlns="http://www.w3.org/2000/svg" xmlns:xlink="http://www.w3.org/1999/xlink" x="0px" y="0px"
	 viewBox="0 0 4000 4000" style="enable-background:new 0 0 4000 4000;" xml:space="preserve">
<style type="text/css">
	.st0{fill:#FDBA49;}
	.st1{fill:#BC8639;}
	.st2{fill:#FAFAFA;}
</style>
<g>
	<path class="st0" d="M2393.3,1025.5c-15.7-16.3-37.4-25.5-60-25.5h-666.7c-22.6,0-44.3,9.2-60,25.5
		c-121.8,126.2-1190,1246.8-1190,1724.5c0,689.3,710.3,1250,1583.3,1250s1583.3-560.7,1583.3-1250
		C3583.3,2272.3,2515.2,1151.7,2393.3,1025.5z"/>
	<path class="st0" d="M3062.5,111.5c-138.8-157-500,49-707.3,188.5C2260.2,165,2119.5,0,2000,0s-260.2,165-355.2,300
		C1438,160.3,1076.2-45.7,937.5,111.5c-38.4,44.3-56.6,102.7-50,161c26.8,308.7,655.2,818.8,726.7,875.8
		c14.9,11.9,33.4,18.4,52.5,18.3h666.7c18.9,0,37.2-6.4,52-18.2c71.5-57.2,700-566.7,726.7-875.8
		C3118.8,214.4,3100.9,155.9,3062.5,111.5z"/>
</g>
<path class="st1" d="M2666.7,1166.7H1333.3c-46,0-83.3-37.3-83.3-83.3s37.3-83.3,83.3-83.3h1333.3c46,0,83.3,37.3,83.3,83.3
	S2712.7,1166.7,2666.7,1166.7z"/>
<g>
	<path class="st2" d="M2000,3333.3c-198.2,19.6-378.7-114.9-416.7-310.3c-3.9-46,30.3-86.5,76.3-90.3s86.5,30.3,90.3,76.3
		c7.3,87,119.5,157.7,250,157.7c135.7,0,250-76.3,250-166.7c0-81.3-79-133.3-248.5-165l-18.2-3.3c-270.5-50-400-160.5-400-331.7
		c26.1-205.4,210.5-353,416.7-333.3c198.2-19.6,378.7,114.9,416.7,310.3c3.9,46-30.3,86.5-76.3,90.3s-86.5-30.3-90.3-76.3l0,0
		c-7-87-119.2-157.7-250-157.7c-135.7,0-250,76.3-250,166.7c0,81.3,79.2,133.3,248.8,165l18.3,3.5c270,50,400,160.3,400,331.7
		C2391,3205.7,2206.2,3353.3,2000,3333.3z"/>
	<path class="st2" d="M2000,3500c-46,0-83.3-37.3-83.3-83.3V2083.3c0-46,37.3-83.3,83.3-83.3s83.3,37.3,83.3,83.3v1333.3
		C2083.3,3462.7,2046,3500,2000,3500z"/>
</g>
</svg>
