<?xml version="1.0" encoding="utf-8"?>
<!-- Generator: Adobe Illustrator 23.0.6, SVG Export Plug-In . SVG Version: 6.00 Build 0)  -->
<svg version="1.1" id="Capa_1" xmlns="http://www.w3.org/2000/svg" xmlns:xlink="http://www.w3.org/1999/xlink" x="0px" y="0px"
	 viewBox="0 0 512 512" style="enable-background:new 0 0 512 512;" xml:space="preserve">
<style type="text/css">
	.st0{fill:#E91E63;}
</style>
<path class="st0" d="M290.7,108.4H143.1c-4.1,0-7.5,3.4-7.5,7.5c0,4.1,3.4,7.5,7.5,7.5h147.6c4.1,0,7.5-3.4,7.5-7.5
	C298.2,111.8,294.8,108.4,290.7,108.4L290.7,108.4z"/>
<path class="st0" d="M72.1,152.1c0,4.1,3.4,7.5,7.5,7.5h113c4.1,0,7.5-3.4,7.5-7.5s-3.4-7.5-7.5-7.5h-113
	C75.5,144.5,72.1,147.9,72.1,152.1z"/>
<path class="st0" d="M323.1,144.5h-81.9c-4.1,0-7.5,3.4-7.5,7.5s3.4,7.5,7.5,7.5h81.9c4.1,0,7.5-3.4,7.5-7.5
	S327.2,144.5,323.1,144.5z"/>
<path class="st0" d="M79.6,197.7h113c4.1,0,7.5-3.4,7.5-7.5s-3.4-7.5-7.5-7.5h-113c-4.1,0-7.5,3.4-7.5,7.5S75.5,197.7,79.6,197.7z"
	/>
<path class="st0" d="M233.7,190.2c0,4.1,3.4,7.5,7.5,7.5h113c4.1,0,7.5-3.4,7.5-7.5s-3.4-7.5-7.5-7.5h-113
	C237.1,182.7,233.7,186.1,233.7,190.2L233.7,190.2z"/>
<path class="st0" d="M79.6,235.9h113c4.1,0,7.5-3.4,7.5-7.5c0-4.1-3.4-7.5-7.5-7.5h-113c-4.1,0-7.5,3.4-7.5,7.5
	C72.1,232.6,75.5,235.9,79.6,235.9z"/>
<path class="st0" d="M361.7,228.4c0-4.1-3.4-7.5-7.5-7.5h-113c-4.1,0-7.5,3.4-7.5,7.5c0,4.1,3.4,7.5,7.5,7.5h113
	C358.3,235.9,361.7,232.6,361.7,228.4z"/>
<path class="st0" d="M409.8,0c-4.6,0-9,0.4-13.4,1.1C394.1,0.5,113,0.1,110,0.1c-6.5,0.1-9.9,5.1-14.3,9.3
	C81,23.2,66.4,37,51.8,50.8C44.7,57.6,37.5,64.3,30.4,71C26.5,74.7,17,81.2,16.5,86.7c0,0.1,0,0.2,0,0.2c0,0.1,0,0.2,0,0.4V484
	c0,15.4,12.5,28,28,28h269.4c4.1,0,7.5-3.4,7.5-7.5c0-4.1-3.4-7.5-7.5-7.5H44.5c-7.2,0-13-5.8-13-13V94.9h56.6c15.4,0,28-12.5,28-28
	V15.1h245.2c-22.4,15.5-37.1,41.3-37.1,70.6c0,44.7,34.4,81.5,78.2,85.4v313c0,7.2-5.8,13-13,13H349c-4.1,0-7.5,3.4-7.5,7.5
	c0,4.1,3.4,7.5,7.5,7.5h40.3c15.4,0,28-12.5,28-28v-313c43.8-3.8,78.2-40.6,78.2-85.4C495.5,38.4,457.1,0,409.8,0z M101,66.9
	c0,7.1-5.8,13-13,13H42.9L101,25V66.9z M409.8,156.4c-39,0-70.7-31.7-70.7-70.7S370.8,15,409.8,15c39,0,70.7,31.7,70.7,70.7
	S448.8,156.4,409.8,156.4z"/>
<path class="st0" d="M458,64.1l-32.8-32.8c-8.6-8.6-22.7-8.6-31.3,0l-32.1,32.1c-8.5,8.5-8.9,22.7-1.1,31.7c4,4.5,9.4,7.1,15.3,7.3
	c4.4,0.1,8.7-1.1,12.3-3.5v25.5c0,12.2,9.9,22.2,22.2,22.2s22.2-9.9,22.2-22.2V99.7c8.3,4,18.5,2.6,25.3-4.3
	c4.2-4.2,6.5-9.8,6.5-15.7C464.5,73.9,462.2,68.3,458,64.1L458,64.1z M447.4,84.8c-2.8,2.8-7.3,2.8-10.1,0l-0.9-0.9
	c-3.2-3.2-7.9-4.1-12-2.4c-4.1,1.7-6.8,5.7-6.8,10.1v32.7c0,3.9-3.2,7.2-7.2,7.2s-7.2-3.2-7.2-7.2V89.9c0-4.5-2.7-8.4-6.8-10.1
	c-1.4-0.6-2.8-0.8-4.2-0.8c-2.9,0-5.6,1.1-7.8,3.2l-3.4,3.4c-1.3,1.3-2.9,2-4.6,1.9c-1.7-0.1-3.3-0.8-4.5-2.2
	c-2.7-3.1-2.6-8.3,0.4-11.2l32.1-32.1c2.8-2.8,7.3-2.8,10.1,0l32.8,32.8c1.4,1.4,2.1,3.1,2.1,5.1C449.5,81.7,448.7,83.5,447.4,84.8z
	"/>
<path class="st0" d="M219.3,262.1c-17.9,0-35.4,6.3-49.2,17.7c-3.2,2.6-3.6,7.4-1,10.6c2.6,3.2,7.4,3.6,10.6,1
	c11.1-9.2,25.2-14.2,39.6-14.2c34.3,0,62.2,27.9,62.2,62.2s-27.9,62.2-62.2,62.2s-62.2-27.9-62.2-62.2c0-7.9,1.5-15.6,4.3-22.9
	c1.5-3.9-0.4-8.2-4.2-9.7c-3.9-1.5-8.2,0.4-9.7,4.2c-3.6,9-5.4,18.6-5.4,28.4c0,24.5,11.5,46.4,29.4,60.6v54c0,4.4,2.2,8.5,5.8,11
	c3.6,2.5,8.2,3,12.3,1.5l29.7-11.4l29.7,11.4c1.5,0.6,3.2,0.9,4.8,0.9c2.7,0,5.3-0.8,7.6-2.4c3.6-2.5,5.8-6.6,5.8-11v-54
	c17.9-14.2,29.4-36,29.4-60.6C296.5,296.7,261.9,262.1,219.3,262.1L219.3,262.1z M252.1,451.5l-28-10.7c-1.5-0.6-3.2-0.9-4.8-0.9
	s-3.2,0.3-4.8,0.9l-28,10.7v-42.3c10,4.7,21.1,7.3,32.8,7.3c11.7,0,22.8-2.6,32.8-7.3V451.5z"/>
<path class="st0" d="M264.8,324c-1.7-5.3-6.2-9-11.7-9.8l-14.4-2.1l-6.5-13.1c-2.4-5-7.4-8-12.9-8c-5.5,0-10.5,3.1-12.9,8l-6.5,13.1
	l-14.4,2.1c-5.5,0.8-9.9,4.6-11.7,9.8c-1.7,5.3-0.3,10.9,3.7,14.8l10.5,10.2l-2.5,14.4c-0.9,5.5,1.3,10.9,5.7,14.1
	c2.5,1.8,5.5,2.8,8.5,2.8c2.3,0,4.6-0.6,6.7-1.7l12.9-6.8l12.9,6.8c4.9,2.6,10.7,2.2,15.2-1.1c4.5-3.3,6.7-8.7,5.7-14.1l-2.5-14.4
	l10.5-10.2C265.1,335,266.5,329.3,264.8,324L264.8,324z M238.6,339.8c-2.6,2.5-3.7,6.1-3.1,9.6l2.6,15.4l-13.8-7.3
	c-1.6-0.8-3.3-1.2-5-1.2c-1.7,0-3.5,0.4-5,1.2l-13.8,7.3l2.6-15.4c0.6-3.5-0.6-7.1-3.1-9.6l-11.2-10.9l15.5-2.2
	c3.5-0.5,6.6-2.7,8.2-5.9l6.9-14l6.9,14c1.6,3.2,4.6,5.4,8.2,5.9l15.5,2.2L238.6,339.8z"/>
</svg>
