<?xml version="1.0" encoding="utf-8"?>
<!-- Generator: Adobe Illustrator 23.0.6, SVG Export Plug-In . SVG Version: 6.00 Build 0)  -->
<svg version="1.1" id="Capa_1" xmlns="http://www.w3.org/2000/svg" xmlns:xlink="http://www.w3.org/1999/xlink" x="0px" y="0px"
	 viewBox="0 0 512 512" style="enable-background:new 0 0 512 512;" xml:space="preserve">
<style type="text/css">
	.st0{fill:#FDBA49;}
</style>
<g>
	<g>
		<path class="st0" d="M448.9,344.7c-7.3-3.8-16.4-1-20.2,6.3c-33.2,63.4-98.2,102.7-169.7,102.7c-105.4,0-191.2-85.7-191.4-191
			l12,12c2.9,2.9,6.8,4.4,10.6,4.4s7.7-1.5,10.6-4.4c5.9-5.9,5.9-15.4,0-21.2l-37.6-37.6c-5.9-5.9-15.4-5.9-21.2,0L4.4,253.6
			c-5.9,5.9-5.9,15.4,0,21.2c5.9,5.9,15.4,5.9,21.2,0l12-12c0.1,59,23.1,114.4,64.8,156.1c41.8,41.8,97.4,64.8,156.6,64.8
			c82.7,0,157.9-45.5,196.2-118.8C459.1,357.6,456.3,348.6,448.9,344.7z"/>
		<path class="st0" d="M507.6,237.2c-5.9-5.9-15.4-5.9-21.2,0l-12,12c-0.1-59-23.1-114.4-64.8-156.1C367.7,51.3,312.1,28.2,253,28.2
			C170.3,28.2,95.1,73.8,56.7,147c-3.8,7.3-1,16.4,6.3,20.2s16.4,1,20.2-6.3C116.5,97.6,181.5,58.2,253,58.2
			c105.4,0,191.2,85.7,191.4,191l-12-12c-5.9-5.9-15.4-5.9-21.2,0s-5.9,15.4,0,21.2l37.6,37.6c2.9,2.9,6.8,4.4,10.6,4.4
			s7.7-1.5,10.6-4.4l37.6-37.6C513.5,252.6,513.5,243.1,507.6,237.2L507.6,237.2z"/>
	</g>
	<path class="st0" d="M276.5,238.8c-13.6-4.8-28.6-10.6-37-17.2c-2.6-2.1-3.8-6.8-2.8-11.8c0.5-2.5,2.7-10.8,11.2-13.4
		c14-4.2,23.6,1.4,27.1,4c6.6,5,16,3.6,21-3s3.6-16-3-21c-3.1-2.4-11-7.5-22.3-10v-6.1c0-8.3-6.7-15-15-15s-15,6.7-15,15v7.1
		c-0.4,0.1-0.9,0.2-1.3,0.4c-16.4,4.9-28.7,19-32,36.6c-3.1,16.2,2.2,31.9,13.8,41c9.5,7.5,22.7,13.8,45.5,21.9
		c15.2,5.4,14.8,17.6,14,22.7c-1.7,10.2-10.3,21.2-25.1,21.3c-14.5,0.1-19-0.6-30.2-7.9c-6.9-4.5-16.2-2.6-20.8,4.3
		c-4.5,6.9-2.6,16.2,4.3,20.8c12,7.9,20.9,11,31.7,12.2v6.9c0,8.3,6.7,15,15,15c8.3,0,15-6.7,15-15V339c8.3-2.3,15.8-6.4,22.2-12.3
		c9.1-8.4,15.3-19.7,17.3-32C314.3,269.8,300.8,247.4,276.5,238.8L276.5,238.8z"/>
</g>
</svg>
