<?xml version="1.0" encoding="utf-8"?>
<!-- Generator: Adobe Illustrator 23.0.6, SVG Export Plug-In . SVG Version: 6.00 Build 0)  -->
<svg version="1.1" id="Layer_1" xmlns="http://www.w3.org/2000/svg" xmlns:xlink="http://www.w3.org/1999/xlink" x="0px" y="0px"
	 viewBox="0 0 512 512" style="enable-background:new 0 0 512 512;" xml:space="preserve">
<style type="text/css">
	.st0{fill:#956ADB;}
</style>
<g>
	<path class="st0" d="M272.2,249.4c3.3,2.2,8.2,1.3,10.4-2l89.9-132.5c2.3-3.4,1.4-8.1-2-10.4c-3.4-2.3-8.1-1.4-10.4,2L270.2,239
		C267.9,242.4,268.8,247.1,272.2,249.4z"/>
	<path class="st0" d="M370.1,250.7c15.6,0,28.3-15.6,28.3-34.7c-1.6-46.1-54.9-46.1-56.5,0C341.8,235.1,354.5,250.7,370.1,250.7
		L370.1,250.7z M370.1,196.2c7.2,0,13.3,9,13.3,19.8s-6.1,19.8-13.3,19.8s-13.3-9-13.3-19.8S362.9,196.2,370.1,196.2z"/>
	<path class="st0" d="M299.8,137.9c0-19.1-12.7-34.7-28.3-34.7c-37.5,1.9-37.5,67.6,0,69.5C287.1,172.6,299.8,157.1,299.8,137.9
		L299.8,137.9z M258.2,137.9c0-10.7,6.1-19.8,13.3-19.8c7.2,0,13.3,9,13.3,19.8s-6.1,19.8-13.3,19.8
		C264.3,157.7,258.2,148.6,258.2,137.9L258.2,137.9z"/>
	<path class="st0" d="M267.6,345.3C451.4,400,578.6,170,435.5,43c-3.1-2.7-7.9-2.3-10.6,0.8c-2.7,3.1-2.3,7.9,0.8,10.6
		c132.8,118.3,11,330.9-158.1,275.2v-50.9c0-6.4-3.9-15.4-22.4-22.1c-21.1-7.5-45.4-8.2-67.5-5.1c-70.6-137.8,73.9-287,213.5-219.9
		c3.7,1.8,8.2,0.3,10-3.4c1.8-3.7,0.3-8.2-3.4-10C247.3-54.4,89.9,104.3,162.6,254.6c-2.2,0.6-4.4,1.3-6.4,2
		c-18.5,6.6-22.4,15.6-22.4,22.1v49.8c-15.2-7.2-31.6-9.5-51.8-9.8c-9.9,0.3-9.9,14.6,0,15c15,0,29,2.1,39.4,5.8
		c10.3,3.7,12.4,7.4,12.4,7.9c0,0.6-2.2,4.3-12.4,8c-23.8,8.5-55.2,8.5-79,0c-10.3-3.7-12.4-7.4-12.4-8c0-0.7,2.6-4.9,15.1-8.8
		c9.4-3.3,5.1-16.9-4.5-14.3C19.4,330.8,15,340.5,15,347.4v135.3c0,6.4,3.9,15.4,22.4,22.1c27.1,9.7,62,9.7,89.1,0
		c6.7-2.4,11.5-5.1,14.9-7.9c3.4,2.8,8.2,5.5,14.9,7.9c27.1,9.7,62,9.7,89.1,0c6.7-2.4,11.5-5.1,14.9-7.9c3.4,2.8,8.2,5.5,14.9,7.9
		c27.1,9.7,62,9.7,89.1,0c18.5-6.6,22.4-15.6,22.4-22.1V415c0-6.4-3.9-15.4-22.4-22.1c-27.1-9.7-62-9.7-89.1,0c-2.8,1-5.2,2-7.4,3.1
		c0-9.8,0-38.7,0-48.9C267.6,347,267.6,345.6,267.6,345.3L267.6,345.3z M371.5,448.9c0,0.6-2.2,4.3-12.4,8c-23.8,8.5-55.2,8.5-79,0
		c-10.3-3.7-12.4-7.4-12.4-8V434c2.2,1.1,4.6,2.1,7.4,3.1c27.1,9.7,62,9.7,89.1,0c2.8-1,5.2-2,7.4-3.1V448.9z M252.7,312.5
		c0,0.6-2.2,4.3-12.4,8c-23.8,8.5-55.2,8.5-79,0c-10.3-3.7-12.4-7.4-12.4-8v-14.9c2.2,1.1,4.6,2.1,7.4,3.1c27.1,9.7,62,9.7,89.1,0
		c2.8-1,5.2-2,7.4-3.1V312.5z M156.2,334.5c29.6,10.3,67.8,10,96.5-3.1v15.5c0,0.6-2.2,4.3-12.4,8c-23.8,8.5-55.2,8.5-79,0
		c-10.3-3.7-12.4-7.4-12.4-8v-15.5C150.9,332.5,153.4,333.5,156.2,334.5z M133.8,415c0,0.6-2.2,4.3-12.4,8c-23.8,8.5-55.2,8.5-79,0
		c-10.3-3.7-12.4-7.4-12.4-8v-14.9c2.2,1.1,4.6,2.1,7.4,3.1c27.1,9.7,62,9.7,89.1,0c2.8-1,5.2-2,7.4-3.1V415z M29.9,434
		c2.2,1.1,4.6,2.1,7.4,3.1c27.1,9.7,62,9.7,89.1,0c2.8-1,5.2-2,7.4-3.1v14.9c0,0.6-2.2,4.3-12.4,8c-23.8,8.5-55.2,8.5-79,0
		c-10.3-3.7-12.4-7.4-12.4-8L29.9,434z M148.8,434c2.2,1.1,4.6,2.1,7.4,3.1c27.1,9.7,62,9.7,89.1,0c2.8-1,5.2-2,7.4-3.1v14.9
		c0,0.6-2.2,4.3-12.4,8c-23.8,8.5-55.2,8.5-79,0c-10.3-3.7-12.4-7.4-12.4-8V434z M240.2,423c-23.8,8.5-55.2,8.5-79,0
		c-10.3-3.7-12.4-7.4-12.4-8v-14.9c2.2,1.1,4.6,2.1,7.4,3.1c27.1,9.7,62,9.7,89.1,0c2.8-1,5.2-2,7.4-3.1V415
		C252.7,415.6,250.5,419.3,240.2,423z M252.7,381.2c0,0.6-2.2,4.3-12.4,8c-23.8,8.5-55.2,8.5-79,0c-10.3-3.7-12.4-7.4-12.4-8v-15.5
		c2.2,1.1,4.6,2.1,7.4,3.1c27.1,9.7,62,9.7,89.1,0c2.8-1,5.2-2,7.4-3.1V381.2z M161.2,270.7c23.8-8.5,55.2-8.5,79,0
		c10.3,3.7,12.4,7.4,12.4,8s-2.2,4.3-12.4,8c-23.8,8.5-55.2,8.5-79,0c-10.3-3.7-12.4-7.4-12.4-8S150.9,274.3,161.2,270.7z
		 M37.3,369.4c29.6,10.3,67.8,10,96.5-3.1v14.9c0,0.6-2.2,4.3-12.4,8c-23.8,8.5-55.2,8.5-79,0c-10.3-3.7-12.4-7.4-12.4-8v-14.9
		C32.1,367.4,34.5,368.4,37.3,369.4z M121.4,490.7c-23.8,8.5-55.2,8.5-79,0c-10.3-3.7-12.4-7.4-12.4-8v-14.9
		c31.1,14,72.8,14,103.9,0v14.9C133.8,483.3,131.6,487,121.4,490.7z M240.2,490.7c-23.8,8.5-55.2,8.5-79,0
		c-10.3-3.7-12.4-7.4-12.4-8v-14.9c31.1,14,72.8,14,103.9,0v14.9C252.7,483.3,250.5,487,240.2,490.7z M359.1,490.7
		c-23.8,8.5-55.2,8.5-79,0c-10.3-3.7-12.4-7.4-12.4-8v-14.9c31.1,14,72.8,14,103.9,0v14.9C371.5,483.3,369.4,487,359.1,490.7z
		 M280.1,407.1c23.8-8.5,55.2-8.5,79,0c10.3,3.7,12.4,7.4,12.4,8s-2.2,4.3-12.4,8c-23.8,8.5-55.2,8.5-79,0
		c-10.3-3.7-12.4-7.4-12.4-8S269.8,410.8,280.1,407.1z"/>
</g>
</svg>
