<?xml version="1.0" encoding="utf-8"?>
<!-- Generator: Adobe Illustrator 16.0.0, SVG Export Plug-In . SVG Version: 6.00 Build 0)  -->
<!DOCTYPE svg PUBLIC "-//W3C//DTD SVG 1.1//EN" "http://www.w3.org/Graphics/SVG/1.1/DTD/svg11.dtd">
<svg version="1.1" id="Layer_1" xmlns="http://www.w3.org/2000/svg" xmlns:xlink="http://www.w3.org/1999/xlink" x="0px" y="0px"
	 width="512px" height="512px" viewBox="0 0 512 512" enable-background="new 0 0 512 512" xml:space="preserve">
<path fill="#00BCD3" d="M474.632,384.563c4.728-0.023,8.568,3.805,8.568,8.533V468.8c0,23.563-19.103,42.667-42.667,42.667H42.667
	C19.103,511.467,0,492.363,0,468.8V150.934c0-23.564,19.103-42.667,42.667-42.667h397.867c23.564,0,42.667,19.103,42.667,42.667
	v75.734c0,4.726-3.835,8.552-8.562,8.533c-8.877-0.036-29.18-0.001-78.896-0.001c-28.277,0-51.21,22.923-51.21,51.2v46.934
	c0,28.277,22.925,51.199,51.202,51.199C446.191,384.533,465.939,384.604,474.632,384.563z M512,286.4v46.933
	c0,18.868-15.364,34.134-34.112,34.134h-82.154c-18.816,0-34.134-15.307-34.134-34.134V286.4c0-18.827,15.317-34.134,34.134-34.134
	h82.134C496.683,252.267,512,267.573,512,286.4z M427.733,309.867c0-4.713-3.821-8.534-8.533-8.534h-12.8
	c-4.713,0-8.533,3.821-8.533,8.534c0,4.712,3.82,8.533,8.533,8.533h12.8C423.912,318.4,427.733,314.579,427.733,309.867z
	 M405.974,54.901l-7.954-2.343c-3.349-0.985-6.964,0.167-9.123,2.908c-6.479,8.222-11.426,16.739-12.246,26.493
	c-0.418,4.974,3.521,9.241,8.512,9.241h36.432c5.319,0,9.426-4.83,8.402-10.05C427.639,69.141,418.803,58.596,405.974,54.901z
	 M359.482,82.91c0.316-10.138,3.635-19.167,8.951-27.901c2.909-4.779,0.484-11.02-4.883-12.599l-54.108-15.933
	c-5.241-1.543-10.782,2.256-10.775,8.19v48c0,4.712,3.82,8.533,8.533,8.533h43.76C355.578,91.2,359.339,87.524,359.482,82.91z
	 M149.333,91.2h11.733c4.713,0,8.534-3.821,8.534-8.533V9.066c0-4.712-3.821-8.533-8.534-8.533h-11.733
	c-4.712,0-8.534,3.821-8.534,8.533v73.601C140.8,87.379,144.621,91.2,149.333,91.2z M247.467,0.533H195.2
	c-4.713,0-8.533,3.821-8.533,8.533v73.601c0,4.712,3.82,8.533,8.533,8.533h77.866c4.713,0,8.533-3.821,8.533-8.533v-48
	C281.6,15.84,266.283,0.533,247.467,0.533z M115.2,0.533h-11.733c-18.852,0-34.133,15.282-34.133,34.134v48
	c0,4.712,3.821,8.533,8.533,8.533H115.2c4.712,0,8.533-3.821,8.533-8.533V9.066C123.733,4.354,119.913,0.533,115.2,0.533z"/>
</svg>
